# AST/ASF file generated using VICON BodyLanguage
# -----------------------------------------------
:version 1.10
:name VICON
:units
  mass 1.0
  length 0.45
  angle deg
:documentation
   .ast/.asf automatically generated from VICON data using
   VICON BodyBuilder and BodyLanguage model FoxedUp or BRILLIANT.MOD
:root
   order TX TY TZ RX RY RZ
   axis XYZ
   position 0 0 0  
   orientation 0 -0 0 
:bonedata
  begin
     id 1 
     name lhipjoint
     direction 0.500677 -0.737119 0.453848 
     length 2.34727 
     axis 0 -0 0  XYZ
  end
  begin
     id 2 
     name lfemur
     direction 0.34202 -0.939693 0  
     length 7.53653  
     axis 0 -0 20  XYZ
    dof rx ry rz
    limits (-160.0 20.0)
           (-70.0 70.0)
           (-60.0 70.0)
  end
  begin
     id 3 
     name ltibia
     direction 0.34202 -0.939693 0   
     length 6.85572   
     axis 0 -0 20   XYZ
    dof rx
    limits (-10.0 170.0)
  end
  begin
     id 4 
     name lfoot
     direction 0.155313 -0.426718 0.890949   
     length 2.18324   
     axis -90 -1.13533e-015 20   XYZ
    dof rx rz
    limits (-45.0 90.0)
           (-70.0 20.0)
  end
  begin
     id 5 
     name ltoes
     direction 1.53474e-011 -4.21647e-011 1   
     length 1.06748   
     axis -90 -1.13533e-015 20   XYZ
    dof rx
    limits (-90.0 20.0)
  end
  begin
     id 6 
     name rhipjoint
     direction -0.632471 -0.659587 0.406111   
     length 2.62319  
     axis 0 -0 0  XYZ 
  end
  begin
     id 7 
     name rfemur
     direction -0.34202 -0.939693 0   
     length 7.21735   
     axis 0 -0 -20   XYZ
    dof rx ry rz
    limits (-160.0 20.0)
           (-70.0 70.0)
           (-70.0 60.0)
  end
  begin
     id 8 
     name rtibia
     direction -0.34202 -0.939693 0   
     length 7.02558   
     axis 0 -0 -20   XYZ
    dof rx
    limits (-10.0 170.0)
 end
 begin
     id 9 
     name rfoot
     direction -0.16057 -0.441164 0.882945   
     length 2.10014  
     axis -90 1.13533e-015 -20   XYZ
    dof rx rz
    limits (-45.0 90.0)
           (-20.0 70.0)
  end
  begin
     id 10 
     name rtoes
     direction -1.53553e-011 -4.2192e-011 1   
     length 1.02554   
     axis -90 1.13533e-015 -20   XYZ
    dof rx
    limits (-90.0 20.0)
  end
  begin
     id 11 
     name lowerback
     direction 0.0401429 0.998861 -0.0258085   
     length 1.80848   
     axis 0 -0 0   XYZ
    dof rx ry rz
    limits (-20.0 45.0)
           (-30.0 30.0)
           (-30.0 30.0)
  end
  begin
     id 12 
     name upperback
     direction -0.0130978 0.999914 -0.000352645   
     length 1.8116   
     axis 0 -0 0   XYZ
    dof rx ry rz
    limits (-20.0 45.0)
           (-30.0 30.0)
           (-30.0 30.0)
  end
  begin
     id 13 
     name thorax
     direction -0.0300198 0.999453 0.0138573   
     length 1.81778   
     axis 0 -0 0   XYZ
    dof rx ry rz
    limits (-20.0 45.0)
           (-30.0 30.0)
           (-30.0 30.0)
  end
  begin
     id 14 
     name lowerneck
     direction -0.0401726 0.999191 -0.00173647   
     length 2.10594   
     axis 0 -0 0   XYZ
    dof rx ry rz
    limits (-20.0 45.0)
           (-30.0 30.0)
           (-30.0 30.0)
  end
  begin
     id 15 
     name upperneck
     direction 0.0119835 0.998501 0.0534085   
     length 2.07325   
     axis 0 -0 0   XYZ
    dof rx ry rz
    limits (-20.0 45.0)
           (-30.0 30.0)
           (-30.0 30.0)
  end
  begin
     id 16
     name head
     direction 0.00628309 0.999826 0.0175921  
     length 2.15096  
     axis 0 -0 0   XYZ
    dof rx ry rz
    limits (-20.0 45.0)
           (-30.0 30.0)
           (-30.0 30.0)
  end
  begin
     id 17 
     name lclavicle
     direction 0.895501 0.429681 -0.115981  
     length 4.18092  
     axis 0 -0 0   XYZ
    dof ry rz
    limits (-20.0 10.0)
           (0.0 20.0)
  end
  begin
     id 18 
     name lhumerus
     direction 1 -4.48961e-011 -3.38433e-028   
     length 5.77237   
     axis 180 -30 -90   XYZ
    dof rx ry rz
    limits (-60.0 90.0)
           (-90.0 90.0)
           (-90.0 90.0)
  end
  begin
     id 19
     name lradius
     direction 1 -4.4901e-011 1.11983e-026   
     length 2.91878   
     axis 180 -30 -90   XYZ
    dof rx
    limits (-10.0 170.0)
  end
  begin
     id 20
     name lwrist
     direction 1 -4.48934e-011 1.88176e-026   
     length 1.45939   
     axis -1.23311e-014 90 90   XYZ
    dof ry
    limits (-180.0 0.0)
 end
  begin
     id 21 
     name lhand
     direction 1 -4.4895e-011 3.76352e-026   
     length 1.06566   
     axis -2.40147e-014 90 90   XYZ
    dof rx rz
    limits (-90.0 90.0)
           (-45.0 45.0)
  end
  begin
     id 22 
     name lfingers
     direction 1 -4.49005e-011 7.52705e-026   
     length 0.859162   
     axis -4.80295e-014 90 90   XYZ
    dof rx
    limits (0.0 90.0)
  end
  begin
     id 23
     name lthumb
     direction 0.707107 -6.34885e-011 0.707107   
     length 1.23359   
     axis -90 45 -9.86935e-015   XYZ
    dof rx rz
    limits (-45.0 45.0)
           (-45.0 45.0)
  end
  begin
     id 24 
     name rclavicle
     direction -0.91006 0.40451 -0.0903492   
     length 4.23293  
     axis 0 -0 0   XYZ 
    dof ry rz
    limits (-10.0 20.0)
           (-20.0 0.0)
  end
  begin
     id 25 
     name rhumerus
     direction -1 -4.4897e-011 1.7415e-027  
     length 5.49854   
     axis 180 30 90   XYZ
    dof rx ry rz
    limits (-90.0 60.0)
           (-90.0 90.0)
           (-90.0 90.0)
  end
  begin
     id 26 
     name rradius
     direction -1 -4.48963e-011 1.21259e-026   
     length 3.1186   
     axis 180 30 90   XYZ
    dof rx
    limits (-10.0 170.0)
  end
  begin
     id 27 
     name rwrist
     direction -1 -4.48967e-011 1.88176e-026   
     length 1.5593   
     axis -1.23311e-014 -90 -90   XYZ
    dof ry
    limits (-180.0 0.0)
  end
  begin
     id 28
     name rhand
     direction -1 -4.4895e-011 3.76352e-026   
     length 0.71207   
     axis -2.40147e-014 -90 -90   XYZ
    dof rx rz
    limits (-90.0 90.0)
           (-45.0 45.0)
  end
  begin
     id 29
     name rfingers
     direction -1 -4.49005e-011 7.52705e-026   
     length 0.574089   
     axis -4.80295e-014 -90 -90   XYZ
    dof rx
    limits (0.0 90.0)
  end
  begin
     id 30
     name rthumb
     direction -0.707107 -6.34982e-011 0.707107   
     length 0.824281   
     axis -90 -45 9.86935e-015   XYZ
    dof rx rz
    limits (-45.0 45.0)
           (-45.0 45.0)
  end
:hierarchy
  begin
    root lhipjoint rhipjoint lowerback
    lhipjoint lfemur
    lfemur ltibia
    ltibia lfoot
    lfoot ltoes
    rhipjoint rfemur
    rfemur rtibia
    rtibia rfoot
    rfoot rtoes
    lowerback upperback
    upperback thorax
    thorax lowerneck lclavicle rclavicle
    lowerneck upperneck
    upperneck head
    lclavicle lhumerus
    lhumerus lradius
    lradius lwrist
    lwrist lhand lthumb
    lhand lfingers
    rclavicle rhumerus
    rhumerus rradius
    rradius rwrist
    rwrist rhand rthumb
    rhand rfingers
  end

#!OML:ASF C:\ViconDB\ViconDB\414\Spring2016\042216\male.ASF
:FULLY-SPECIFIED
:DEGREES
779
root 34.0006 17.3407 2.83003 -539.013 61.314 -179.264
lowerback -0.675893 -2.83388 2.61761
upperback -0.404998 -3.79162 -0.599009
thorax -0.247182 -1.90378 -2.08705
lowerneck 2.74326 11.0404 -1.08704
upperneck 5.19826 14.6603 7.30987
head 0.513571 7.44016 2.33252
rclavicle 5.76305e-014 -2.48481e-016
rhumerus -28.4832 -4.38909 -93.1858
rradius 27.6367
rwrist 23.614
rhand 5.93432 -23.0048
rfingers 7.12502
rthumb 31.2607 -50.3563
lclavicle 5.76305e-014 -2.48481e-016
lhumerus -35.4207 13.5003 86.4577
lradius 32.0801
lwrist -11.7875
lhand -18.8654 18.5007
lfingers 7.12502
lthumb 7.43509 48.35
rfemur -10.4325 5.13883 16.5137
rtibia 26.8165
rfoot -17.4956 -17.8906
rtoes -12.4235
lfemur -5.59699 -2.13659 -7.31624
ltibia 33.0683
lfoot -19.5583 39.131
ltoes -3.51699
780
root 34.0647 17.3475 2.89312 -538.764 61.4215 -178.816
lowerback -0.468683 -2.80333 3.10547
upperback -0.43574 -3.74652 -0.607413
thorax -0.424255 -1.88593 -2.35462
lowerneck 3.18582 11.2497 -0.460034
upperneck 4.97174 14.9723 6.59512
head 0.461715 7.58601 1.97347
rclavicle 7.61361e-014 -5.46658e-016
rhumerus -28.5256 -4.15482 -93.1455
rradius 27.3329
rwrist 24.6101
rhand 6.32194 -23.1042
rfingers 7.12502
rthumb 31.63 -50.3837
lclavicle 7.61361e-014 -5.46658e-016
lhumerus -35.7603 12.6591 87.4069
lradius 31.407
lwrist -11.8397
lhand -21.3974 18.9412
lfingers 7.12502
lthumb 4.99064 48.8624
rfemur -10.0258 5.75645 17.1671
rtibia 26.5447
rfoot -17.5534 -18.4879
rtoes -12.502
lfemur -6.46231 -1.62177 -6.94177
ltibia 34.7437
lfoot -18.9488 35.8688
ltoes -4.37934
781
root 34.1214 17.3586 2.95216 -538.715 61.4506 -178.639
lowerback -0.253117 -2.78296 3.44795
upperback -0.481431 -3.71162 -0.581347
thorax -0.60985 -1.87355 -2.5055
lowerneck 3.42576 11.4103 -0.351124
upperneck 4.87676 15.1972 6.27894
head 0.419346 7.69076 1.83704
rclavicle -2.02124e-014 3.32964e-015
rhumerus -28.4895 -4.15214 -92.8929
rradius 26.9321
rwrist 25.8096
rhand 6.79734 -22.9393
rfingers 7.12502
rthumb 32.0828 -50.1287
lclavicle -2.02124e-014 3.32964e-015
lhumerus -36.1577 12.0582 88.4125
lradius 30.9125
lwrist -12.7039
lhand -23.3817 19.7874
lfingers 7.12502
lthumb 3.07447 49.745
rfemur -9.64805 6.23595 17.6403
rtibia 26.2633
rfoot -17.5899 -18.9935
rtoes -12.6041
lfemur -7.39557 -1.26063 -6.81152
ltibia 36.351
lfoot -18.8795 32.6957
ltoes -3.59012
782
root 34.1806 17.3679 3.00355 -538.648 61.5889 -178.447
lowerback -0.101352 -2.70718 3.94146
upperback -0.518243 -3.60366 -0.625671
thorax -0.758933 -1.82564 -2.81791
lowerneck 3.50176 11.4593 -0.34801
upperneck 4.91065 15.2636 6.09526
head 0.430844 7.72181 1.77663
rclavicle 2.95925e-014 9.93923e-016
rhumerus -28.5233 -3.7543 -92.871
rradius 26.7241
rwrist 26.105
rhand 6.8439 -23.3387
rfingers 7.12502
rthumb 32.1271 -50.5191
lclavicle 2.95925e-014 9.93923e-016
lhumerus -36.7092 11.4195 89.2829
lradius 31.0767
lwrist -13.3353
lhand -24.2061 20.6676
lfingers 7.12502
lthumb 2.27835 50.6352
rfemur -9.28995 6.67578 18.0884
rtibia 26.0071
rfoot -17.664 -19.3672
rtoes -12.6121
lfemur -8.2319 -0.913622 -6.76219
ltibia 37.8781
lfoot -19.5853 30.2048
ltoes -5.11331
783
root 34.2387 17.3743 3.05403 -538.827 61.695 -178.51
lowerback 0.0942843 -2.66256 4.11361
upperback -0.596355 -3.53339 -0.611192
thorax -0.953023 -1.79659 -2.88758
lowerneck 3.79322 11.5572 -0.433183
upperneck 4.80463 15.399 5.92293
head 0.354109 7.78038 1.71011
rclavicle 6.92252e-016 -1.72694e-015
rhumerus -28.6627 -3.54529 -92.6315
rradius 26.4994
rwrist 26.8517
rhand 7.34063 -23.1731
rfingers 7.12502
rthumb 32.5999 -50.2569
lclavicle 6.92252e-016 -1.72694e-015
lhumerus -37.1253 12.3117 89.5397
lradius 31.0769
lwrist -13.7398
lhand -24.9713 21.3575
lfingers 7.12502
lthumb 1.5393 51.3317
rfemur -8.93439 7.15896 18.3948
rtibia 25.8288
rfoot -17.847 -19.7834
rtoes -13.1994
lfemur -8.97349 -0.947144 -6.96693
ltibia 39.2905
lfoot -20.441 28.8101
ltoes -6.17243
784
root 34.2927 17.3814 3.10148 -539.289 61.7614 -178.878
lowerback 0.342587 -2.61235 4.22815
upperback -0.658165 -3.45429 -0.680857
thorax -1.16065 -1.76368 -3.01021
lowerneck 3.97646 11.6125 -0.329232
upperneck 4.79428 15.4808 5.62184
head 0.352072 7.81811 1.59117
rclavicle -3.10933e-015 -2.90528e-015
rhumerus -28.7965 -3.09952 -92.5093
rradius 26.3861
rwrist 27.0949
rhand 7.55027 -23.132
rfingers 7.12502
rthumb 32.7993 -50.1744
lclavicle -3.10933e-015 -2.90528e-015
lhumerus -37.4508 13.9554 89.1932
lradius 31.3411
lwrist -12.9502
lhand -26.7399 20.6803
lfingers 7.12502
lthumb -0.168861 50.66
rfemur -8.60838 7.68366 18.5362
rtibia 25.7738
rfoot -18.7758 -20.2708
rtoes -11.4269
lfemur -9.66562 -1.20932 -7.39815
ltibia 40.5592
lfoot -21.1989 27.8871
ltoes -6.87979
